<?xml version="1.0" encoding="iso-8859-1"?>
<!-- Generator: Adobe Illustrator 16.0.0, SVG Export Plug-In . SVG Version: 6.00 Build 0)  -->
<!DOCTYPE svg PUBLIC "-//W3C//DTD SVG 1.1//EN" "http://www.w3.org/Graphics/SVG/1.1/DTD/svg11.dtd">
<svg version="1.1" id="Capa_1" xmlns="http://www.w3.org/2000/svg" xmlns:xlink="http://www.w3.org/1999/xlink" x="0px" y="0px"
	 width="30.679px" height="30.68px" viewBox="0 0 30.679 30.68" style="background-color: rgb(21, 255, 0)"
	 xml:space="preserve">
<g>
	<path d="M7.15,15.051v-1.752c-1.531-0.055-3.018-0.387-3.887-0.793l0.688-2.158c0.959,0.424,2.31,0.811,3.795,0.811
		c1.303,0,2.193-0.405,2.193-1.143c0-0.701-0.73-1.145-2.422-1.604C5.07,7.748,3.4,6.825,3.4,5.037c0-1.625,1.418-2.896,3.863-3.285
		V0h2.242v1.623c1.531,0.057,2.561,0.313,3.314,0.608l-0.664,2.084c-0.593-0.203-1.646-0.627-3.291-0.627
		c-1.486,0-1.967,0.517-1.967,1.033c0,0.607,0.801,0.996,2.743,1.586c2.722,0.775,3.819,1.789,3.819,3.451
		c0,1.641-1.441,3.043-4.069,3.412v1.881H7.15L7.15,15.051z M19.296,13.446v-2.951h-3.543V9.186h3.543V8.003h-3.543V6.691h2.721
		l-3.727-5.237h3.727l1.602,2.95c0.41,0.738,0.662,1.365,0.962,2.013h0.045c0.297-0.609,0.595-1.312,0.981-2.029l1.623-2.934h3.658
		l-3.908,5.237h2.721v1.312h-3.59v1.183h3.59v1.309h-3.59v2.951H19.296L19.296,13.446z M16.989,29.887v-1.496
		c1.213-0.404,2.562-1.457,2.562-2.711c0-0.258-0.022-0.479-0.067-0.736h-2.24v-1.897h1.828c-0.112-0.463-0.185-0.998-0.185-1.496
		c0-2.324,2.104-3.854,5.168-3.854c1.259,0,2.194,0.221,2.698,0.442l-0.571,2.121c-0.437-0.203-1.075-0.332-1.921-0.332
		c-1.623,0-2.126,0.851-2.126,1.731c0,0.48,0.067,0.925,0.205,1.388h3.132v1.897h-2.834c0.021,0.461-0.021,0.886-0.206,1.312
		c-0.206,0.461-0.571,0.922-1.12,1.312v0.034h6.104v2.289H16.989V29.887z M11.5,23.389v-0.033c1.486-0.434,2.17-1.301,2.17-2.229
		c0-0.945-0.664-1.658-1.584-2.047c-0.256-0.119-0.525-0.215-0.814-0.293v-1.922H9.048v1.646C8.839,18.503,8.63,18.497,8.4,18.494
		v-1.631H6.175v1.683c-0.748,0.039-1.412,0.096-1.835,0.162V28.97c0.431,0.05,1.06,0.099,1.835,0.125v1.584H8.4v-1.567
		c0.227-0.008,0.438-0.021,0.648-0.031v1.6h2.223v-1.91c0.609-0.154,1.1-0.35,1.48-0.59c0.82-0.527,1.369-1.271,1.369-2.217
		C14.12,24.611,13.005,23.713,11.5,23.389z M10.677,21.418c0,0.775-0.84,1.289-2.404,1.289H7.294v-2.436
		c0.254-0.029,0.625-0.062,1.271-0.062C9.916,20.209,10.677,20.629,10.677,21.418z M7.294,27.34v-2.945h1.018
		c1.486,0,2.68,0.42,2.68,1.473c0,1.104-1.192,1.507-2.545,1.507C7.941,27.371,7.587,27.371,7.294,27.34z"/>
</g>
<g>
</g>
<g>
</g>
<g>
</g>
<g>
</g>
<g>
</g>
<g>
</g>
<g>
</g>
<g>
</g>
<g>
</g>
<g>
</g>
<g>
</g>
<g>
</g>
<g>
</g>
<g>
</g>
<g>
</g>
</svg>
